<mxfile host="Electron" modified="2023-10-24T17:12:34.104Z" agent="Mozilla/5.0 (Windows NT 10.0; Win64; x64) AppleWebKit/537.36 (KHTML, like Gecko) draw.io/21.7.5 Chrome/114.0.5735.289 Electron/25.8.1 Safari/537.36" etag="td7IXmVxPZKMnw0xNJf-" version="21.7.5" type="device">
  <diagram name="第 1 页" id="P9nXRh8syzSHhiK4xhbL">
    <mxGraphModel dx="1394" dy="686" grid="0" gridSize="10" guides="1" tooltips="1" connect="1" arrows="1" fold="1" page="1" pageScale="1" pageWidth="1169" pageHeight="827" math="0" shadow="0">
      <root>
        <mxCell id="0" />
        <mxCell id="1" parent="0" />
        <mxCell id="yPvWo7wsZlfeGX-TeD2v-10" style="edgeStyle=orthogonalEdgeStyle;rounded=0;orthogonalLoop=1;jettySize=auto;html=1;exitX=0.5;exitY=1;exitDx=0;exitDy=0;" edge="1" parent="1" source="yPvWo7wsZlfeGX-TeD2v-1" target="yPvWo7wsZlfeGX-TeD2v-3">
          <mxGeometry relative="1" as="geometry" />
        </mxCell>
        <mxCell id="yPvWo7wsZlfeGX-TeD2v-1" value="" style="ellipse;whiteSpace=wrap;html=1;rounded=0;shadow=0;comic=0;labelBackgroundColor=none;strokeWidth=1;fillColor=#000000;fontFamily=Verdana;fontSize=12;align=center;" vertex="1" parent="1">
          <mxGeometry x="639" y="140" width="40" height="40" as="geometry" />
        </mxCell>
        <mxCell id="yPvWo7wsZlfeGX-TeD2v-2" value="" style="shape=mxgraph.bpmn.shape;html=1;verticalLabelPosition=bottom;labelBackgroundColor=#ffffff;verticalAlign=top;perimeter=ellipsePerimeter;outline=end;symbol=terminate;rounded=0;shadow=0;comic=0;strokeWidth=1;fontFamily=Verdana;fontSize=12;align=center;" vertex="1" parent="1">
          <mxGeometry x="639" y="670" width="40" height="40" as="geometry" />
        </mxCell>
        <mxCell id="yPvWo7wsZlfeGX-TeD2v-19" style="edgeStyle=orthogonalEdgeStyle;rounded=0;orthogonalLoop=1;jettySize=auto;html=1;exitX=0.25;exitY=1;exitDx=0;exitDy=0;entryX=0.5;entryY=0;entryDx=0;entryDy=0;" edge="1" parent="1" source="yPvWo7wsZlfeGX-TeD2v-3" target="yPvWo7wsZlfeGX-TeD2v-4">
          <mxGeometry relative="1" as="geometry">
            <Array as="points">
              <mxPoint x="599" y="260" />
              <mxPoint x="599" y="280" />
              <mxPoint x="259" y="280" />
            </Array>
          </mxGeometry>
        </mxCell>
        <mxCell id="yPvWo7wsZlfeGX-TeD2v-20" style="edgeStyle=orthogonalEdgeStyle;rounded=0;orthogonalLoop=1;jettySize=auto;html=1;exitX=0.25;exitY=1;exitDx=0;exitDy=0;entryX=0.5;entryY=0;entryDx=0;entryDy=0;" edge="1" parent="1" source="yPvWo7wsZlfeGX-TeD2v-3" target="yPvWo7wsZlfeGX-TeD2v-6">
          <mxGeometry relative="1" as="geometry">
            <Array as="points">
              <mxPoint x="619" y="260" />
              <mxPoint x="619" y="290" />
              <mxPoint x="379" y="290" />
            </Array>
          </mxGeometry>
        </mxCell>
        <mxCell id="yPvWo7wsZlfeGX-TeD2v-23" style="edgeStyle=orthogonalEdgeStyle;rounded=0;orthogonalLoop=1;jettySize=auto;html=1;exitX=0.75;exitY=1;exitDx=0;exitDy=0;" edge="1" parent="1" source="yPvWo7wsZlfeGX-TeD2v-3" target="yPvWo7wsZlfeGX-TeD2v-9">
          <mxGeometry relative="1" as="geometry">
            <Array as="points">
              <mxPoint x="679" y="260" />
              <mxPoint x="679" y="300" />
              <mxPoint x="769" y="300" />
            </Array>
          </mxGeometry>
        </mxCell>
        <mxCell id="yPvWo7wsZlfeGX-TeD2v-24" style="edgeStyle=orthogonalEdgeStyle;rounded=0;orthogonalLoop=1;jettySize=auto;html=1;exitX=0.75;exitY=1;exitDx=0;exitDy=0;entryX=0.5;entryY=0;entryDx=0;entryDy=0;" edge="1" parent="1" source="yPvWo7wsZlfeGX-TeD2v-3" target="yPvWo7wsZlfeGX-TeD2v-8">
          <mxGeometry relative="1" as="geometry">
            <Array as="points">
              <mxPoint x="696" y="280" />
              <mxPoint x="909" y="280" />
            </Array>
          </mxGeometry>
        </mxCell>
        <mxCell id="yPvWo7wsZlfeGX-TeD2v-31" style="edgeStyle=orthogonalEdgeStyle;rounded=0;orthogonalLoop=1;jettySize=auto;html=1;entryX=0.5;entryY=0;entryDx=0;entryDy=0;" edge="1" parent="1" source="yPvWo7wsZlfeGX-TeD2v-3" target="yPvWo7wsZlfeGX-TeD2v-7">
          <mxGeometry relative="1" as="geometry" />
        </mxCell>
        <mxCell id="yPvWo7wsZlfeGX-TeD2v-85" style="edgeStyle=orthogonalEdgeStyle;rounded=0;orthogonalLoop=1;jettySize=auto;html=1;exitX=0.25;exitY=1;exitDx=0;exitDy=0;entryX=0.5;entryY=0;entryDx=0;entryDy=0;" edge="1" parent="1" source="yPvWo7wsZlfeGX-TeD2v-3" target="yPvWo7wsZlfeGX-TeD2v-5">
          <mxGeometry relative="1" as="geometry">
            <Array as="points">
              <mxPoint x="640" y="260" />
              <mxPoint x="640" y="295" />
              <mxPoint x="571" y="295" />
            </Array>
          </mxGeometry>
        </mxCell>
        <mxCell id="yPvWo7wsZlfeGX-TeD2v-3" value="" style="whiteSpace=wrap;html=1;rounded=0;shadow=0;comic=0;labelBackgroundColor=none;strokeWidth=1;fillColor=#000000;fontFamily=Verdana;fontSize=12;align=center;rotation=0;" vertex="1" parent="1">
          <mxGeometry x="585.5" y="250" width="147" height="10" as="geometry" />
        </mxCell>
        <mxCell id="yPvWo7wsZlfeGX-TeD2v-76" style="edgeStyle=orthogonalEdgeStyle;rounded=0;orthogonalLoop=1;jettySize=auto;html=1;exitX=0.5;exitY=1;exitDx=0;exitDy=0;entryX=0.5;entryY=0;entryDx=0;entryDy=0;" edge="1" parent="1" source="yPvWo7wsZlfeGX-TeD2v-4" target="yPvWo7wsZlfeGX-TeD2v-75">
          <mxGeometry relative="1" as="geometry" />
        </mxCell>
        <mxCell id="yPvWo7wsZlfeGX-TeD2v-4" value="新建" style="rounded=1;whiteSpace=wrap;html=1;shadow=0;comic=0;labelBackgroundColor=none;strokeWidth=1;fontFamily=Verdana;fontSize=12;align=center;arcSize=50;" vertex="1" parent="1">
          <mxGeometry x="209" y="330" width="100" height="30" as="geometry" />
        </mxCell>
        <mxCell id="yPvWo7wsZlfeGX-TeD2v-27" style="edgeStyle=orthogonalEdgeStyle;rounded=0;orthogonalLoop=1;jettySize=auto;html=1;exitX=0.5;exitY=1;exitDx=0;exitDy=0;entryX=0.5;entryY=0;entryDx=0;entryDy=0;" edge="1" parent="1" source="yPvWo7wsZlfeGX-TeD2v-5" target="yPvWo7wsZlfeGX-TeD2v-26">
          <mxGeometry relative="1" as="geometry" />
        </mxCell>
        <mxCell id="yPvWo7wsZlfeGX-TeD2v-5" value="保存" style="rounded=1;whiteSpace=wrap;html=1;shadow=0;comic=0;labelBackgroundColor=none;strokeWidth=1;fontFamily=Verdana;fontSize=12;align=center;arcSize=50;" vertex="1" parent="1">
          <mxGeometry x="520.5" y="330" width="100" height="30" as="geometry" />
        </mxCell>
        <mxCell id="yPvWo7wsZlfeGX-TeD2v-79" style="edgeStyle=orthogonalEdgeStyle;rounded=0;orthogonalLoop=1;jettySize=auto;html=1;exitX=0.5;exitY=1;exitDx=0;exitDy=0;entryX=0.5;entryY=0;entryDx=0;entryDy=0;" edge="1" parent="1" source="yPvWo7wsZlfeGX-TeD2v-6" target="yPvWo7wsZlfeGX-TeD2v-78">
          <mxGeometry relative="1" as="geometry" />
        </mxCell>
        <mxCell id="yPvWo7wsZlfeGX-TeD2v-6" value="打开" style="rounded=1;whiteSpace=wrap;html=1;shadow=0;comic=0;labelBackgroundColor=none;strokeWidth=1;fontFamily=Verdana;fontSize=12;align=center;arcSize=50;" vertex="1" parent="1">
          <mxGeometry x="329" y="330" width="100" height="30" as="geometry" />
        </mxCell>
        <mxCell id="yPvWo7wsZlfeGX-TeD2v-91" style="edgeStyle=orthogonalEdgeStyle;rounded=0;orthogonalLoop=1;jettySize=auto;html=1;exitX=0.5;exitY=1;exitDx=0;exitDy=0;entryX=0.5;entryY=0;entryDx=0;entryDy=0;" edge="1" parent="1" source="yPvWo7wsZlfeGX-TeD2v-7" target="yPvWo7wsZlfeGX-TeD2v-89">
          <mxGeometry relative="1" as="geometry" />
        </mxCell>
        <mxCell id="yPvWo7wsZlfeGX-TeD2v-7" value="另存" style="rounded=1;whiteSpace=wrap;html=1;shadow=0;comic=0;labelBackgroundColor=none;strokeWidth=1;fontFamily=Verdana;fontSize=12;align=center;arcSize=50;" vertex="1" parent="1">
          <mxGeometry x="632.5" y="440" width="100" height="30" as="geometry" />
        </mxCell>
        <mxCell id="yPvWo7wsZlfeGX-TeD2v-94" style="edgeStyle=orthogonalEdgeStyle;rounded=0;orthogonalLoop=1;jettySize=auto;html=1;exitX=0.5;exitY=1;exitDx=0;exitDy=0;" edge="1" parent="1" source="yPvWo7wsZlfeGX-TeD2v-8" target="yPvWo7wsZlfeGX-TeD2v-93">
          <mxGeometry relative="1" as="geometry" />
        </mxCell>
        <mxCell id="yPvWo7wsZlfeGX-TeD2v-8" value="关闭文档" style="rounded=1;whiteSpace=wrap;html=1;shadow=0;comic=0;labelBackgroundColor=none;strokeWidth=1;fontFamily=Verdana;fontSize=12;align=center;arcSize=50;" vertex="1" parent="1">
          <mxGeometry x="859" y="330" width="100" height="30" as="geometry" />
        </mxCell>
        <mxCell id="yPvWo7wsZlfeGX-TeD2v-40" style="edgeStyle=orthogonalEdgeStyle;rounded=0;orthogonalLoop=1;jettySize=auto;html=1;exitX=0.5;exitY=1;exitDx=0;exitDy=0;entryX=0.695;entryY=-0.067;entryDx=0;entryDy=0;entryPerimeter=0;" edge="1" parent="1" source="yPvWo7wsZlfeGX-TeD2v-9" target="yPvWo7wsZlfeGX-TeD2v-35">
          <mxGeometry relative="1" as="geometry">
            <Array as="points">
              <mxPoint x="769" y="540" />
              <mxPoint x="688" y="540" />
            </Array>
          </mxGeometry>
        </mxCell>
        <mxCell id="yPvWo7wsZlfeGX-TeD2v-9" value="导出（当前是打印）" style="rounded=1;whiteSpace=wrap;html=1;shadow=0;comic=0;labelBackgroundColor=none;strokeWidth=1;fontFamily=Verdana;fontSize=12;align=center;arcSize=50;" vertex="1" parent="1">
          <mxGeometry x="709" y="330" width="120" height="30" as="geometry" />
        </mxCell>
        <mxCell id="yPvWo7wsZlfeGX-TeD2v-29" style="edgeStyle=orthogonalEdgeStyle;rounded=0;orthogonalLoop=1;jettySize=auto;html=1;exitX=0.25;exitY=1;exitDx=0;exitDy=0;" edge="1" parent="1" source="yPvWo7wsZlfeGX-TeD2v-26" target="yPvWo7wsZlfeGX-TeD2v-28">
          <mxGeometry relative="1" as="geometry">
            <Array as="points">
              <mxPoint x="534" y="420" />
              <mxPoint x="484" y="420" />
            </Array>
          </mxGeometry>
        </mxCell>
        <mxCell id="yPvWo7wsZlfeGX-TeD2v-43" value="有文件名" style="edgeLabel;html=1;align=center;verticalAlign=middle;resizable=0;points=[];" vertex="1" connectable="0" parent="yPvWo7wsZlfeGX-TeD2v-29">
          <mxGeometry x="-0.0234" relative="1" as="geometry">
            <mxPoint x="10" y="-15" as="offset" />
          </mxGeometry>
        </mxCell>
        <mxCell id="yPvWo7wsZlfeGX-TeD2v-34" style="edgeStyle=orthogonalEdgeStyle;rounded=0;orthogonalLoop=1;jettySize=auto;html=1;exitX=0.75;exitY=1;exitDx=0;exitDy=0;entryX=0.25;entryY=0;entryDx=0;entryDy=0;" edge="1" parent="1" source="yPvWo7wsZlfeGX-TeD2v-26" target="yPvWo7wsZlfeGX-TeD2v-7">
          <mxGeometry relative="1" as="geometry" />
        </mxCell>
        <mxCell id="yPvWo7wsZlfeGX-TeD2v-44" value="无文件名" style="edgeLabel;html=1;align=center;verticalAlign=middle;resizable=0;points=[];" vertex="1" connectable="0" parent="yPvWo7wsZlfeGX-TeD2v-34">
          <mxGeometry x="0.0983" y="-3" relative="1" as="geometry">
            <mxPoint x="5" y="-18" as="offset" />
          </mxGeometry>
        </mxCell>
        <mxCell id="yPvWo7wsZlfeGX-TeD2v-26" value="" style="whiteSpace=wrap;html=1;rounded=0;shadow=0;comic=0;labelBackgroundColor=none;strokeWidth=1;fillColor=#000000;fontFamily=Verdana;fontSize=12;align=center;rotation=0;" vertex="1" parent="1">
          <mxGeometry x="497" y="380" width="147" height="10" as="geometry" />
        </mxCell>
        <mxCell id="yPvWo7wsZlfeGX-TeD2v-84" style="edgeStyle=orthogonalEdgeStyle;rounded=0;orthogonalLoop=1;jettySize=auto;html=1;exitX=0.5;exitY=1;exitDx=0;exitDy=0;entryX=0.403;entryY=0.128;entryDx=0;entryDy=0;entryPerimeter=0;" edge="1" parent="1" source="yPvWo7wsZlfeGX-TeD2v-28" target="yPvWo7wsZlfeGX-TeD2v-35">
          <mxGeometry relative="1" as="geometry">
            <Array as="points">
              <mxPoint x="484" y="540" />
              <mxPoint x="645" y="540" />
            </Array>
          </mxGeometry>
        </mxCell>
        <mxCell id="yPvWo7wsZlfeGX-TeD2v-28" value="直接保存" style="rounded=1;whiteSpace=wrap;html=1;shadow=0;comic=0;labelBackgroundColor=none;strokeWidth=1;fontFamily=Verdana;fontSize=12;align=center;arcSize=50;" vertex="1" parent="1">
          <mxGeometry x="434" y="450" width="100" height="30" as="geometry" />
        </mxCell>
        <mxCell id="yPvWo7wsZlfeGX-TeD2v-96" style="edgeStyle=orthogonalEdgeStyle;rounded=0;orthogonalLoop=1;jettySize=auto;html=1;exitX=0.5;exitY=1;exitDx=0;exitDy=0;entryX=0.5;entryY=0;entryDx=0;entryDy=0;" edge="1" parent="1" source="yPvWo7wsZlfeGX-TeD2v-35" target="yPvWo7wsZlfeGX-TeD2v-2">
          <mxGeometry relative="1" as="geometry" />
        </mxCell>
        <mxCell id="yPvWo7wsZlfeGX-TeD2v-35" value="" style="whiteSpace=wrap;html=1;rounded=0;shadow=0;comic=0;labelBackgroundColor=none;strokeWidth=1;fillColor=#000000;fontFamily=Verdana;fontSize=12;align=center;rotation=0;" vertex="1" parent="1">
          <mxGeometry x="585.5" y="620" width="147" height="10" as="geometry" />
        </mxCell>
        <mxCell id="yPvWo7wsZlfeGX-TeD2v-90" style="edgeStyle=orthogonalEdgeStyle;rounded=0;orthogonalLoop=1;jettySize=auto;html=1;exitX=0.5;exitY=1;exitDx=0;exitDy=0;entryX=0.099;entryY=0;entryDx=0;entryDy=0;entryPerimeter=0;" edge="1" parent="1" source="yPvWo7wsZlfeGX-TeD2v-75" target="yPvWo7wsZlfeGX-TeD2v-35">
          <mxGeometry relative="1" as="geometry">
            <Array as="points">
              <mxPoint x="259" y="580" />
              <mxPoint x="600" y="580" />
            </Array>
          </mxGeometry>
        </mxCell>
        <mxCell id="yPvWo7wsZlfeGX-TeD2v-75" value="创建新窗口&lt;br&gt;创建新文本框" style="rounded=1;whiteSpace=wrap;html=1;shadow=0;comic=0;labelBackgroundColor=none;strokeWidth=1;fontFamily=Verdana;fontSize=12;align=center;arcSize=50;" vertex="1" parent="1">
          <mxGeometry x="209" y="400" width="100" height="40" as="geometry" />
        </mxCell>
        <mxCell id="yPvWo7wsZlfeGX-TeD2v-87" style="edgeStyle=orthogonalEdgeStyle;rounded=0;orthogonalLoop=1;jettySize=auto;html=1;exitX=0.5;exitY=1;exitDx=0;exitDy=0;entryX=0.5;entryY=0;entryDx=0;entryDy=0;" edge="1" parent="1" source="yPvWo7wsZlfeGX-TeD2v-78" target="yPvWo7wsZlfeGX-TeD2v-86">
          <mxGeometry relative="1" as="geometry" />
        </mxCell>
        <mxCell id="yPvWo7wsZlfeGX-TeD2v-78" value="按行读入文件内容" style="rounded=1;whiteSpace=wrap;html=1;shadow=0;comic=0;labelBackgroundColor=none;strokeWidth=1;fontFamily=Verdana;fontSize=12;align=center;arcSize=50;" vertex="1" parent="1">
          <mxGeometry x="324" y="390" width="110" height="30" as="geometry" />
        </mxCell>
        <mxCell id="yPvWo7wsZlfeGX-TeD2v-88" style="edgeStyle=orthogonalEdgeStyle;rounded=0;orthogonalLoop=1;jettySize=auto;html=1;exitX=0.5;exitY=1;exitDx=0;exitDy=0;entryX=0.25;entryY=0;entryDx=0;entryDy=0;" edge="1" parent="1" source="yPvWo7wsZlfeGX-TeD2v-86" target="yPvWo7wsZlfeGX-TeD2v-35">
          <mxGeometry relative="1" as="geometry">
            <Array as="points">
              <mxPoint x="379" y="560" />
              <mxPoint x="622" y="560" />
            </Array>
          </mxGeometry>
        </mxCell>
        <mxCell id="yPvWo7wsZlfeGX-TeD2v-86" value="写入文本框" style="rounded=1;whiteSpace=wrap;html=1;shadow=0;comic=0;labelBackgroundColor=none;strokeWidth=1;fontFamily=Verdana;fontSize=12;align=center;arcSize=50;" vertex="1" parent="1">
          <mxGeometry x="329" y="450" width="100" height="30" as="geometry" />
        </mxCell>
        <mxCell id="yPvWo7wsZlfeGX-TeD2v-92" style="edgeStyle=orthogonalEdgeStyle;rounded=0;orthogonalLoop=1;jettySize=auto;html=1;exitX=0.5;exitY=1;exitDx=0;exitDy=0;" edge="1" parent="1" source="yPvWo7wsZlfeGX-TeD2v-89" target="yPvWo7wsZlfeGX-TeD2v-35">
          <mxGeometry relative="1" as="geometry">
            <Array as="points">
              <mxPoint x="683" y="540" />
              <mxPoint x="659" y="540" />
            </Array>
          </mxGeometry>
        </mxCell>
        <mxCell id="yPvWo7wsZlfeGX-TeD2v-89" value="创建文件名与地址" style="rounded=1;whiteSpace=wrap;html=1;shadow=0;comic=0;labelBackgroundColor=none;strokeWidth=1;fontFamily=Verdana;fontSize=12;align=center;arcSize=50;" vertex="1" parent="1">
          <mxGeometry x="628.75" y="490" width="107.5" height="30" as="geometry" />
        </mxCell>
        <mxCell id="yPvWo7wsZlfeGX-TeD2v-95" style="edgeStyle=orthogonalEdgeStyle;rounded=0;orthogonalLoop=1;jettySize=auto;html=1;exitX=0.5;exitY=1;exitDx=0;exitDy=0;entryX=0.857;entryY=0.128;entryDx=0;entryDy=0;entryPerimeter=0;" edge="1" parent="1" source="yPvWo7wsZlfeGX-TeD2v-93" target="yPvWo7wsZlfeGX-TeD2v-35">
          <mxGeometry relative="1" as="geometry">
            <Array as="points">
              <mxPoint x="909" y="560" />
              <mxPoint x="712" y="560" />
            </Array>
          </mxGeometry>
        </mxCell>
        <mxCell id="yPvWo7wsZlfeGX-TeD2v-93" value="退出程序运行" style="rounded=1;whiteSpace=wrap;html=1;shadow=0;comic=0;labelBackgroundColor=none;strokeWidth=1;fontFamily=Verdana;fontSize=12;align=center;arcSize=50;" vertex="1" parent="1">
          <mxGeometry x="859" y="440" width="100" height="30" as="geometry" />
        </mxCell>
      </root>
    </mxGraphModel>
  </diagram>
</mxfile>
